<svg width="59" height="43" viewBox="0 0 59 43" fill="none" xmlns="http://www.w3.org/2000/svg">
<path d="M33.5224 10.6946C34.547 9.66632 35.1818 8.24829 35.1818 6.68181C35.1818 3.54402 32.6378 1 29.5 1C27.516 1 25.7721 2.01857 24.7559 3.55971C24.4868 3.83004 1.8706 31.7044 1.65941 32.0255C0.633591 33.0525 0 34.4705 0 36.037C0 39.1748 2.54281 41.7188 5.6806 41.7188C7.66465 41.7188 9.40853 40.7002 10.4247 39.1591C10.695 38.8888 33.3112 11.0144 33.5224 10.6946Z" fill="#6366F1"/>
<path d="M46.6081 23.9203C47.6363 22.8921 48.2723 21.4728 48.2723 19.904C48.2723 16.7662 45.7283 14.2221 42.5905 14.2221C40.6065 14.2221 38.8614 15.2419 37.8452 16.7831C37.5737 17.0558 25.6948 31.6972 25.4824 32.0206C24.4541 33.0489 23.8193 34.4681 23.8193 36.037C23.8193 39.1748 26.3621 41.7188 29.4999 41.7188C31.484 41.7188 33.2291 40.699 34.2452 39.1579C34.5168 38.8851 46.3957 24.2437 46.6081 23.9203Z" fill="#6366F1"/>
<path d="M59.0001 6.68181C59.0001 9.81959 56.4573 12.3636 53.3195 12.3636C50.1817 12.3636 47.6377 9.81959 47.6377 6.68181C47.6377 3.54402 50.1817 1 53.3195 1C56.4573 1 59.0001 3.54402 59.0001 6.68181Z" fill="#6366F1"/>
<path d="M11.3624 6.68181C11.3624 9.81959 8.81838 12.3636 5.6806 12.3636C2.54281 12.3636 0 9.81959 0 6.68181C0 3.54402 2.54281 1 5.6806 1C8.81838 1 11.3624 3.54402 11.3624 6.68181Z" fill="#6366F1"/>
</svg>
